<svg width="165" height="45" viewBox="0 0 165 45" fill="none" xmlns="http://www.w3.org/2000/svg">
<path d="M165 41.8512H97.1277V41.5056H164.653V3.93376H97.1277V3.5918H165V41.8512Z" fill="url(#paint0_linear_3601_356)"/>
<path d="M69.7118 41.8512H0V3.5918H69.7118V3.93376H0.347407V41.5056H69.7118V41.8512Z" fill="url(#paint1_linear_3601_356)"/>
<path d="M161.581 44.7207H91.7593V44.3751H161.233V1.0663H91.7593V0.720703H161.581V44.7207Z" fill="url(#paint2_linear_3601_356)"/>
<path d="M75.0801 44.7207H3.41553V0.720703H75.0837V1.0663H3.76293V44.3751H75.0801V44.7207Z" fill="url(#paint3_linear_3601_356)"/>
<path d="M42.3214 29.5439H38.4744V30.2533H42.3214H43.0382V29.5439V23.2031H42.3214V29.5439Z" fill="url(#paint4_linear_3601_356)"/>
<path d="M50.9481 28.7077L41.2024 15.7606C41.1609 15.7032 41.1059 15.6569 41.0421 15.6258C40.9783 15.5947 40.9077 15.5798 40.8367 15.5823H40.376V28.0347H41.1074V17.092L50.9371 30.1629C50.9623 30.1951 50.9944 30.2213 51.0311 30.2396C51.0679 30.2579 51.1082 30.2677 51.1492 30.2684H51.6649V15.5823H50.9335L50.9481 28.7077Z" fill="url(#paint5_linear_3601_356)"/>
<path d="M58.6129 15.5586V15.635C58.6126 15.7611 58.6603 15.8827 58.7465 15.9751C58.8327 16.0676 58.9509 16.1242 59.0773 16.1334L53.0251 30.2519H53.9284L55.7751 25.9374H63.3888L65.2356 30.2519H66.4241L60.1342 15.5586H58.6129ZM56.0896 25.2426L59.6076 17.0428L63.1182 25.2426H56.0896Z" fill="url(#paint6_linear_3601_356)"/>
<path d="M37.242 25.3788C37.242 25.9884 37.1213 26.592 36.8868 27.1552C36.6523 27.7184 36.3086 28.2301 35.8753 28.6611C35.442 29.0922 34.9276 29.4341 34.3615 29.6674C33.7954 29.9007 33.1886 30.0207 32.5758 30.0207C31.963 30.0207 31.3563 29.9007 30.7901 29.6674C30.224 29.4341 29.7096 29.0922 29.2763 28.6611C28.843 28.2301 28.4993 27.7184 28.2648 27.1552C28.0303 26.592 27.9096 25.9884 27.9096 25.3788V15.582H26.9807V25.0405C26.9788 25.7492 27.1175 26.4514 27.3888 27.1067C27.6601 27.7621 28.0587 28.3577 28.5618 28.8596C29.0649 29.3614 29.6626 29.7596 30.3207 30.0312C30.9787 30.3029 31.6842 30.4427 32.3966 30.4427H32.7623C34.1987 30.4427 35.5763 29.8751 36.5919 28.8647C37.6076 27.8543 38.1782 26.4839 38.1782 25.055V15.5966H37.253L37.242 25.3788Z" fill="url(#paint7_linear_3601_356)"/>
<path d="M20.1204 28.5075H20.8372V16.2406V15.5312H20.1204H16.054V16.2406H20.1204V28.5075Z" fill="url(#paint8_linear_3601_356)"/>
<path d="M18.9208 17.8105H17.9956V29.4917V30.2521H18.9208H26.6735V29.4917H18.9208V17.8105Z" fill="url(#paint9_linear_3601_356)"/>
<path d="M122.141 25.3788C122.141 26.6099 121.649 27.7906 120.774 28.6611C119.899 29.5317 118.712 30.0207 117.475 30.0207C116.237 30.0207 115.05 29.5317 114.175 28.6611C113.3 27.7906 112.809 26.6099 112.809 25.3788V15.582H111.88V25.0405C111.878 25.7486 112.016 26.4502 112.287 27.1051C112.558 27.7599 112.956 28.3552 113.458 28.857C113.961 29.3587 114.557 29.757 115.215 30.0291C115.872 30.3012 116.576 30.4418 117.288 30.4427H117.654C119.09 30.4418 120.466 29.8737 121.481 28.8634C122.496 27.8531 123.066 26.4833 123.066 25.055V15.5966H122.141V25.3788Z" fill="url(#paint10_linear_3601_356)"/>
<path d="M105.012 28.5075H105.725V16.2406V15.5312H105.012H100.949V16.2406H105.012V28.5075Z" fill="url(#paint11_linear_3601_356)"/>
<path d="M103.816 17.8105H102.887V29.4917V30.2521H103.816H111.565V29.4917H103.816V17.8105Z" fill="url(#paint12_linear_3601_356)"/>
<path d="M130.464 22.569L131.071 21.7905L136.059 28.5169H137.145L131.631 21.0775L135.946 15.5625H134.856L131.1 20.3645L127.542 15.5625H126.452L130.541 21.0775L129.934 21.856L125.264 15.5625H123.999L129.283 22.6854L123.366 30.2522H124.452L129.813 23.4021L134.896 30.2522H136.162H139.083V29.5428H135.635L130.464 22.569Z" fill="url(#paint13_linear_3601_356)"/>
<path d="M141.358 29.3291V22.9919H147.483V22.0715H141.358V16.4692H149.151V15.5488H141.358H140.433V16.4692V22.0715V22.9919V29.3291V30.2494H141.358H149.487V29.3291H141.358Z" fill="url(#paint14_linear_3601_356)"/>
<path d="M83.7177 30.7798V11.8047H83.6189H82.6389H77.1133V12.8779H82.6389V30.7798H83.7177Z" fill="url(#paint15_linear_3601_356)"/>
<path d="M83.6922 0.894532C81.8909 0.894052 80.1072 1.24688 78.4432 1.93283C76.7791 2.61878 75.2673 3.62439 73.9943 4.89213C72.7213 6.15987 71.712 7.66485 71.0242 9.32099C70.3365 10.9771 69.9837 12.7519 69.9861 14.5438V30.9142C69.986 32.9346 70.4381 34.9296 71.3098 36.7544C72.1814 38.5793 73.4507 40.1881 75.0253 41.464C75.6379 41.9645 76.2938 42.4101 76.9854 42.7955C79.0326 43.9418 81.343 44.542 83.6922 44.538C84.4827 44.538 85.2718 44.4711 86.0509 44.3379C88.83 43.8563 91.3912 42.5309 93.383 40.5436C94.3802 39.5498 95.2188 38.4101 95.8697 37.1641C95.396 37.5372 94.8821 37.8569 94.3375 38.1172C93.2689 39.9145 91.7475 41.4034 89.9236 42.4369C88.0997 43.4705 86.0363 44.0128 83.9372 44.0105H83.4472C80.9793 44.0142 78.5696 43.2651 76.5429 41.8642C75.9429 41.4477 75.3812 40.979 74.8644 40.4636C73.7455 39.3471 72.8586 38.0223 72.2543 36.5648C71.6501 35.1074 71.3404 33.5458 71.3428 31.9692V13.4779C71.3457 10.2862 72.6223 7.22628 74.892 4.97046C77.1617 2.71463 80.2388 1.44749 83.4472 1.44749H83.9372C87.1485 1.44749 90.2282 2.71651 92.4989 4.97538C94.7696 7.23425 96.0453 10.2979 96.0453 13.4925V30.7796C96.0426 31.7973 95.7405 32.7919 95.1763 33.6408C94.6122 34.4897 93.8106 35.1558 92.8704 35.5569C91.9302 35.958 90.8926 36.0766 89.8855 35.898C88.8784 35.7195 87.9458 35.2516 87.2029 34.5521H87.1846C86.4274 33.8159 85.533 33.2339 84.5516 32.8386C83.9977 32.6127 83.418 32.4551 82.8255 32.3694C82.7195 32.3694 82.2075 32.2893 81.9771 32.2893H80.9422V15.2714H79.5855V33.6317H82.0064C82.4373 33.6591 82.8647 33.7273 83.2826 33.8354C84.337 34.1288 85.3085 34.6618 86.1204 35.3924C86.1204 35.3924 86.1204 35.3924 86.1387 35.4143C86.2228 35.487 86.3032 35.5634 86.3837 35.6398C86.3878 35.6476 86.3942 35.6539 86.402 35.658C87.348 36.5099 88.5226 37.07 89.7827 37.2699C91.0429 37.4699 92.3343 37.3012 93.4998 36.7843C94.6653 36.2674 95.6547 35.4246 96.3475 34.3585C97.0403 33.2925 97.4066 32.049 97.402 30.7796V14.5438C97.4039 12.7517 97.0507 10.9769 96.3625 9.32072C95.6744 7.66456 94.6647 6.1596 93.3914 4.89191C92.1181 3.62422 90.6061 2.61866 88.9418 1.93276C87.2775 1.24685 85.4937 0.894053 83.6922 0.894532Z" fill="url(#paint16_linear_3601_356)"/>
<defs>
<linearGradient id="paint0_linear_3601_356" x1="131.43" y1="1.14715" x2="130.724" y2="43.161" gradientUnits="userSpaceOnUse">
<stop stop-color="#EBBB6C"/>
<stop offset="1" stop-color="#D39000"/>
</linearGradient>
<linearGradient id="paint1_linear_3601_356" x1="35.2527" y1="-0.475339" x2="34.5433" y2="41.5385" gradientUnits="userSpaceOnUse">
<stop stop-color="#EBBB6C"/>
<stop offset="1" stop-color="#D39000"/>
</linearGradient>
<linearGradient id="paint2_linear_3601_356" x1="127.038" y1="1.07358" x2="126.332" y2="43.0874" gradientUnits="userSpaceOnUse">
<stop stop-color="#EBBB6C"/>
<stop offset="1" stop-color="#D39000"/>
</linearGradient>
<linearGradient id="paint3_linear_3601_356" x1="39.6409" y1="-0.39976" x2="38.9352" y2="41.6141" gradientUnits="userSpaceOnUse">
<stop stop-color="#EBBB6C"/>
<stop offset="1" stop-color="#D39000"/>
</linearGradient>
<linearGradient id="paint4_linear_3601_356" x1="40.9318" y1="13.0135" x2="40.7472" y2="30.9554" gradientUnits="userSpaceOnUse">
<stop stop-color="#EBBB6C"/>
<stop offset="1" stop-color="#D39000"/>
</linearGradient>
<linearGradient id="paint5_linear_3601_356" x1="46.1429" y1="13.0685" x2="45.9584" y2="31.0069" gradientUnits="userSpaceOnUse">
<stop stop-color="#EBBB6C"/>
<stop offset="1" stop-color="#D39000"/>
</linearGradient>
<linearGradient id="paint6_linear_3601_356" x1="59.9148" y1="13.2085" x2="59.7302" y2="31.1469" gradientUnits="userSpaceOnUse">
<stop stop-color="#EBBB6C"/>
<stop offset="1" stop-color="#D39000"/>
</linearGradient>
<linearGradient id="paint7_linear_3601_356" x1="32.6526" y1="12.93" x2="32.468" y2="30.8684" gradientUnits="userSpaceOnUse">
<stop stop-color="#EBBB6C"/>
<stop offset="1" stop-color="#D39000"/>
</linearGradient>
<linearGradient id="paint8_linear_3601_356" x1="18.5407" y1="12.7847" x2="18.3561" y2="30.7266" gradientUnits="userSpaceOnUse">
<stop stop-color="#EBBB6C"/>
<stop offset="1" stop-color="#D39000"/>
</linearGradient>
<linearGradient id="paint9_linear_3601_356" x1="22.4497" y1="12.823" x2="22.2652" y2="30.765" gradientUnits="userSpaceOnUse">
<stop stop-color="#EBBB6C"/>
<stop offset="1" stop-color="#D39000"/>
</linearGradient>
<linearGradient id="paint10_linear_3601_356" x1="117.533" y1="13.7995" x2="117.349" y2="31.7415" gradientUnits="userSpaceOnUse">
<stop stop-color="#EBBB6C"/>
<stop offset="1" stop-color="#D39000"/>
</linearGradient>
<linearGradient id="paint11_linear_3601_356" x1="103.425" y1="13.6577" x2="103.24" y2="31.5961" gradientUnits="userSpaceOnUse">
<stop stop-color="#EBBB6C"/>
<stop offset="1" stop-color="#D39000"/>
</linearGradient>
<linearGradient id="paint12_linear_3601_356" x1="107.334" y1="13.6961" x2="107.149" y2="31.6345" gradientUnits="userSpaceOnUse">
<stop stop-color="#EBBB6C"/>
<stop offset="1" stop-color="#D39000"/>
</linearGradient>
<linearGradient id="paint13_linear_3601_356" x1="131.393" y1="13.94" x2="131.208" y2="31.882" gradientUnits="userSpaceOnUse">
<stop stop-color="#EBBB6C"/>
<stop offset="1" stop-color="#D39000"/>
</linearGradient>
<linearGradient id="paint14_linear_3601_356" x1="145.052" y1="14.0828" x2="144.867" y2="32.0211" gradientUnits="userSpaceOnUse">
<stop stop-color="#EBBB6C"/>
<stop offset="1" stop-color="#D39000"/>
</linearGradient>
<linearGradient id="paint15_linear_3601_356" x1="80.0973" y1="-0.502215" x2="81.2011" y2="44.2547" gradientUnits="userSpaceOnUse">
<stop stop-color="#EBBB6C"/>
<stop offset="1" stop-color="#D39000"/>
</linearGradient>
<linearGradient id="paint16_linear_3601_356" x1="83.1108" y1="-0.575167" x2="84.2145" y2="44.1818" gradientUnits="userSpaceOnUse">
<stop stop-color="#EBBB6C"/>
<stop offset="1" stop-color="#D39000"/>
</linearGradient>
</defs>
</svg>
