<svg width="32" height="20" viewBox="0 0 32 20" fill="none" xmlns="http://www.w3.org/2000/svg">
  <g clip-path="url(#clip0_3601_924)">
    <path d="M7.00244 6.80859L15.3963 12.7458C15.7165 12.9723 16.1429 12.9793 16.4704 12.7635L25.506 6.80859" stroke="#000000" stroke-opacity="0.1" stroke-width="1.90476"/>
    <mask id="mask0_3601_924" style="mask-type:luminance" maskUnits="userSpaceOnUse" x="0" y="0" width="32" height="20">
      <path d="M30.0918 0.849609H1.92797C1.40198 0.849609 0.975586 1.276 0.975586 1.80199V18.65C0.975586 19.176 1.40198 19.6024 1.92797 19.6024H30.0918C30.6178 19.6024 31.0442 19.176 31.0442 18.65V1.80199C31.0442 1.276 30.6178 0.849609 30.0918 0.849609Z" fill="white"/>
    </mask>
    <g mask="url(#mask0_3601_924)">
      <path d="M30.0918 0.849609H1.92797C1.40198 0.849609 0.975586 1.276 0.975586 1.80199V18.65C0.975586 19.176 1.40198 19.6024 1.92797 19.6024H30.0918C30.6178 19.6024 31.0442 19.176 31.0442 18.65V1.80199C31.0442 1.276 30.6178 0.849609 30.0918 0.849609Z" stroke="#000000" stroke-opacity="0.1" stroke-width="3.80952"/>
    </g>
  </g>
  <defs>
    <clipPath id="clip0_3601_924">
      <rect width="30.4762" height="20" fill="white" transform="translate(0.830078)"/>
    </clipPath>
  </defs>
</svg>