<svg width="26" height="41" viewBox="0 0 26 41" fill="none" xmlns="http://www.w3.org/2000/svg">
<path d="M13.0226 27.9908V10.2324H12.9289H11.9995H6.75928V11.2368H11.9995V27.9908H13.0226Z" fill="url(#paint0_linear_3601_782)"/>
<path d="M12.9983 0.0214848C11.29 0.0210358 9.59842 0.351238 8.02029 0.993201C6.44216 1.63516 5.00845 2.57629 3.80118 3.76273C2.59391 4.94918 1.63677 6.35766 0.984528 7.9076C0.332283 9.45753 -0.00226798 11.1185 1.15711e-05 12.7955V28.1162C-0.000116645 30.007 0.428703 31.8741 1.25533 33.5819C2.08196 35.2897 3.28565 36.7953 4.77898 37.9895C5.35993 38.4579 5.98199 38.8748 6.63785 39.2355C8.57933 40.3083 10.7704 40.8701 12.9983 40.8663C13.7479 40.8663 14.4963 40.8037 15.2351 40.6791C17.8707 40.2283 20.2997 38.9879 22.1886 37.1281C23.1343 36.198 23.9295 35.1314 24.5468 33.9652C24.0976 34.3144 23.6102 34.6136 23.0937 34.8572C22.0803 36.5393 20.6375 37.9327 18.9078 38.9C17.1781 39.8672 15.2213 40.3748 13.2306 40.3727H12.7659C10.4255 40.3761 8.14021 39.675 6.21822 38.364C5.64913 37.9742 5.11643 37.5355 4.62638 37.0532C3.56524 36.0083 2.72414 34.7684 2.15111 33.4044C1.57808 32.0404 1.28433 30.5789 1.28665 29.1035V11.798C1.28941 8.81095 2.50005 5.94721 4.65252 3.83604C6.805 1.72486 9.72321 0.538981 12.7659 0.538982H13.2306C16.276 0.538982 19.1967 1.72663 21.3501 3.84065C23.5035 5.95467 24.7133 8.8219 24.7133 11.8116V27.9902C24.7107 28.9426 24.4243 29.8734 23.8893 30.6679C23.3542 31.4623 22.594 32.0857 21.7024 32.4611C20.8108 32.8365 19.8268 32.9475 18.8717 32.7804C17.9166 32.6133 17.0322 32.1754 16.3276 31.5207H16.3102C15.5922 30.8318 14.744 30.287 13.8132 29.9172C13.2879 29.7057 12.7382 29.5582 12.1763 29.478C12.0758 29.478 11.5902 29.4031 11.3717 29.4031H10.3903V13.4764H9.10363V30.6594H11.3995C11.8082 30.685 12.2135 30.7488 12.6098 30.85C13.6097 31.1246 14.531 31.6234 15.301 32.3072C15.301 32.3072 15.301 32.3072 15.3184 32.3276C15.3981 32.3957 15.4744 32.4672 15.5507 32.5387C15.5546 32.546 15.5607 32.5519 15.5681 32.5557C16.4652 33.3531 17.5791 33.8772 18.7742 34.0643C19.9693 34.2514 21.194 34.0935 22.2993 33.6098C23.4046 33.126 24.3429 32.3373 24.9999 31.3396C25.6569 30.3419 26.0044 29.1782 26 27.9902V12.7955C26.0018 11.1184 25.6668 9.4573 25.0142 7.90734C24.3616 6.35738 23.4041 4.94893 22.1965 3.76253C20.989 2.57613 19.5551 1.63506 17.9767 0.993136C16.3984 0.351214 14.7067 0.0210364 12.9983 0.0214848Z" fill="url(#paint1_linear_3601_782)"/>
<defs>
<linearGradient id="paint0_linear_3601_782" x1="9.5892" y1="-1.2853" x2="10.6086" y2="40.6023" gradientUnits="userSpaceOnUse">
<stop stop-color="#EBBB6C"/>
<stop offset="1" stop-color="#D39000"/>
</linearGradient>
<linearGradient id="paint1_linear_3601_782" x1="12.4468" y1="-1.35397" x2="13.4663" y2="40.5336" gradientUnits="userSpaceOnUse">
<stop stop-color="#EBBB6C"/>
<stop offset="1" stop-color="#D39000"/>
</linearGradient>
</defs>
</svg>
