<svg width="170" height="56" viewBox="0 0 170 56" fill="none" xmlns="http://www.w3.org/2000/svg">
<path d="M33.4423 36.6638H28.5444V37.5717H33.4423H34.3548V36.6638V28.5488H33.4423V36.6638Z" fill="url(#paint0_linear_3601_1083)"/>
<path d="M44.4257 35.5933L32.018 19.0234C31.9652 18.95 31.8951 18.8908 31.8138 18.851C31.7326 18.8112 31.6428 18.792 31.5524 18.7953H30.9658V34.732H31.897V20.7274L44.4117 37.4556C44.4437 37.4969 44.4846 37.5305 44.5314 37.5538C44.5781 37.5772 44.6295 37.5898 44.6817 37.5906H45.3382V18.7953H44.407L44.4257 35.5933Z" fill="url(#paint1_linear_3601_1083)"/>
<path d="M54.1839 18.7676V18.8653C54.1834 19.0267 54.2442 19.1823 54.3539 19.3007C54.4636 19.419 54.6142 19.4914 54.7751 19.5032L47.0698 37.5723H48.2198L50.571 32.0505H60.2643L62.6155 37.5723H64.1286L56.1207 18.7676H54.1839ZM50.9714 31.1613L55.4502 20.6671L59.9198 31.1613H50.9714Z" fill="url(#paint2_linear_3601_1083)"/>
<path d="M26.9758 31.3329C26.9758 32.1131 26.8221 32.8856 26.5235 33.6064C26.225 34.3271 25.7874 34.982 25.2357 35.5337C24.6841 36.0853 24.0292 36.5229 23.3084 36.8215C22.5877 37.12 21.8151 37.2737 21.035 37.2737C20.2548 37.2737 19.4823 37.12 18.7616 36.8215C18.0408 36.5229 17.3859 36.0853 16.8342 35.5337C16.2826 34.982 15.845 34.3271 15.5464 33.6064C15.2479 32.8856 15.0942 32.1131 15.0942 31.3329V18.7949H13.9116V30.8999C13.9092 31.807 14.0857 32.7056 14.4312 33.5443C14.7766 34.3831 15.2841 35.1454 15.9246 35.7876C16.5651 36.4299 17.3261 36.9395 18.1639 37.2871C19.0016 37.6348 19.8998 37.8138 20.8069 37.8138H21.2724C23.1012 37.8138 24.855 37.0873 26.1481 35.7942C27.4412 34.5011 28.1676 32.7473 28.1676 30.9186V18.8135H26.9897L26.9758 31.3329Z" fill="url(#paint3_linear_3601_1083)"/>
<path d="M5.17722 35.3376H6.08976V19.6383V18.7305H5.17722H0V19.6383H5.17722V35.3376Z" fill="url(#paint4_linear_3601_1083)"/>
<path d="M3.65008 21.6494H2.47217V36.5991V37.5722H3.65008H13.5203V36.5991H3.65008V21.6494Z" fill="url(#paint5_linear_3601_1083)"/>
<path d="M135.064 31.3329C135.064 32.9085 134.438 34.4196 133.324 35.5337C132.21 36.6478 130.699 37.2737 129.123 37.2737C127.548 37.2737 126.037 36.6478 124.923 35.5337C123.808 34.4196 123.183 32.9085 123.183 31.3329V18.7949H122V30.8999C121.998 31.8062 122.174 32.7041 122.519 33.5422C122.863 34.3803 123.37 35.1422 124.01 35.7843C124.649 36.4265 125.409 36.9362 126.246 37.2845C127.082 37.6327 127.98 37.8126 128.886 37.8138H129.352C131.179 37.8125 132.932 37.0855 134.224 35.7926C135.516 34.4996 136.242 32.7465 136.242 30.9186V18.8135H135.064V31.3329Z" fill="url(#paint6_linear_3601_1083)"/>
<path d="M113.257 35.3376H114.164V19.6383V18.7305H113.257H108.084V19.6383H113.257V35.3376Z" fill="url(#paint7_linear_3601_1083)"/>
<path d="M111.734 21.6494H110.551V36.5991V37.5722H111.734H121.599V36.5991H111.734V21.6494Z" fill="url(#paint8_linear_3601_1083)"/>
<path d="M145.66 27.7395L146.433 26.7432L152.784 35.3517H154.167L147.146 25.8306L152.639 18.7725H151.252L146.471 24.9181L141.94 18.7725H140.553L145.758 25.8306L144.985 26.827L139.04 18.7725H137.429L144.157 27.8885L136.624 37.5725H138.006L144.832 28.8057L151.303 37.5725H152.914H156.634V36.6646H152.244L145.66 27.7395Z" fill="url(#paint9_linear_3601_1083)"/>
<path d="M159.53 36.39V28.2796H167.329V27.1017H159.53V19.9318H169.452V18.7539H159.53H158.353V19.9318V27.1017V28.2796V36.39V37.5679H159.53H169.88V36.39H159.53Z" fill="url(#paint10_linear_3601_1083)"/>
<path d="M86.1456 38.2474V13.9629H86.0199H84.7722H77.7373V15.3363H84.7722V38.2474H86.1456Z" fill="url(#paint11_linear_3601_1083)"/>
<path d="M86.1134 6.25477e-07C83.8202 -0.000613449 81.5492 0.450939 79.4306 1.32882C77.312 2.20671 75.3873 3.4937 73.7666 5.11616C72.1458 6.73863 70.8609 8.66472 69.9853 10.7843C69.1097 12.9038 68.6605 15.1752 68.6636 17.4685V38.4195C68.6634 41.0052 69.2391 43.5584 70.3488 45.8938C71.4586 48.2293 73.0745 50.2882 75.0793 51.9212C75.8592 52.5618 76.6943 53.132 77.5747 53.6252C80.1811 55.0923 83.1226 55.8605 86.1134 55.8554C87.1199 55.8553 88.1245 55.7697 89.1164 55.5993C92.6546 54.9829 95.9154 53.2867 98.4513 50.7433C99.7208 49.4714 100.788 48.0128 101.617 46.4181C101.014 46.8956 100.36 47.3047 99.6664 47.6379C98.3059 49.9381 96.369 51.8436 94.0469 53.1663C91.7248 54.4891 89.0978 55.1832 86.4254 55.1803H85.8015C82.6595 55.185 79.5916 54.2263 77.0114 52.4334C76.2474 51.9003 75.5323 51.3005 74.8744 50.6409C73.4498 49.212 72.3207 47.5165 71.5514 45.6512C70.7821 43.7859 70.3878 41.7873 70.3909 39.7697V16.1043C70.3946 12.0196 72.0198 8.10344 74.9095 5.21641C77.7991 2.32937 81.7168 0.707677 85.8015 0.707679H86.4254C90.5138 0.707679 94.4347 2.33178 97.3256 5.22271C100.217 8.11364 101.841 12.0346 101.841 16.123V38.2472C101.837 39.5496 101.453 40.8225 100.734 41.9089C100.016 42.9954 98.9956 43.8478 97.7986 44.3612C96.6016 44.8745 95.2806 45.0263 93.9984 44.7978C92.7162 44.5693 91.5289 43.9705 90.583 43.0753H90.5597C89.5957 42.1331 88.457 41.3882 87.2076 40.8824C86.5023 40.5932 85.7643 40.3915 85.01 40.2818C84.875 40.2818 84.2232 40.1794 83.9299 40.1794H82.6123V18.3996H80.885V41.8973H83.9671C84.5158 41.9324 85.0599 42.0197 85.592 42.1581C86.9344 42.5335 88.1711 43.2157 89.2049 44.1507C89.2049 44.1507 89.2049 44.1507 89.2282 44.1787C89.3352 44.2718 89.4377 44.3696 89.5401 44.4673C89.5453 44.4772 89.5535 44.4854 89.5634 44.4906C90.7678 45.5809 92.2632 46.2977 93.8676 46.5536C95.4719 46.8095 97.1161 46.5935 98.5999 45.932C100.084 45.2705 101.343 44.1919 102.225 42.8275C103.107 41.4632 103.574 39.8718 103.568 38.2472V17.4685C103.57 15.175 103.121 12.9035 102.245 10.7839C101.368 8.66434 100.083 6.73828 98.4619 5.11588C96.8408 3.49348 94.9158 2.20656 92.7969 1.32873C90.6781 0.450906 88.4069 -0.000612609 86.1134 6.25477e-07Z" fill="url(#paint12_linear_3601_1083)"/>
<defs>
<linearGradient id="paint0_linear_3601_1083" x1="31.6731" y1="15.508" x2="31.4357" y2="38.4703" gradientUnits="userSpaceOnUse">
<stop stop-color="#EBBB6C"/>
<stop offset="1" stop-color="#D39000"/>
</linearGradient>
<linearGradient id="paint1_linear_3601_1083" x1="38.308" y1="15.5781" x2="38.0705" y2="38.5358" gradientUnits="userSpaceOnUse">
<stop stop-color="#EBBB6C"/>
<stop offset="1" stop-color="#D39000"/>
</linearGradient>
<linearGradient id="paint2_linear_3601_1083" x1="55.8413" y1="15.7599" x2="55.6039" y2="38.7176" gradientUnits="userSpaceOnUse">
<stop stop-color="#EBBB6C"/>
<stop offset="1" stop-color="#D39000"/>
</linearGradient>
<linearGradient id="paint3_linear_3601_1083" x1="21.1328" y1="15.4009" x2="20.8953" y2="38.3585" gradientUnits="userSpaceOnUse">
<stop stop-color="#EBBB6C"/>
<stop offset="1" stop-color="#D39000"/>
</linearGradient>
<linearGradient id="paint4_linear_3601_1083" x1="3.16593" y1="15.2154" x2="2.92848" y2="38.1777" gradientUnits="userSpaceOnUse">
<stop stop-color="#EBBB6C"/>
<stop offset="1" stop-color="#D39000"/>
</linearGradient>
<linearGradient id="paint5_linear_3601_1083" x1="8.14291" y1="15.2663" x2="7.90546" y2="38.2286" gradientUnits="userSpaceOnUse">
<stop stop-color="#EBBB6C"/>
<stop offset="1" stop-color="#D39000"/>
</linearGradient>
<linearGradient id="paint6_linear_3601_1083" x1="129.198" y1="16.5136" x2="128.96" y2="39.4759" gradientUnits="userSpaceOnUse">
<stop stop-color="#EBBB6C"/>
<stop offset="1" stop-color="#D39000"/>
</linearGradient>
<linearGradient id="paint7_linear_3601_1083" x1="111.236" y1="16.3327" x2="110.999" y2="39.2904" gradientUnits="userSpaceOnUse">
<stop stop-color="#EBBB6C"/>
<stop offset="1" stop-color="#D39000"/>
</linearGradient>
<linearGradient id="paint8_linear_3601_1083" x1="116.213" y1="16.3837" x2="115.975" y2="39.3414" gradientUnits="userSpaceOnUse">
<stop stop-color="#EBBB6C"/>
<stop offset="1" stop-color="#D39000"/>
</linearGradient>
<linearGradient id="paint9_linear_3601_1083" x1="146.843" y1="16.696" x2="146.606" y2="39.6583" gradientUnits="userSpaceOnUse">
<stop stop-color="#EBBB6C"/>
<stop offset="1" stop-color="#D39000"/>
</linearGradient>
<linearGradient id="paint10_linear_3601_1083" x1="164.233" y1="16.8776" x2="163.995" y2="39.8353" gradientUnits="userSpaceOnUse">
<stop stop-color="#EBBB6C"/>
<stop offset="1" stop-color="#D39000"/>
</linearGradient>
<linearGradient id="paint11_linear_3601_1083" x1="81.5364" y1="-1.7876" x2="82.9564" y2="55.4924" gradientUnits="userSpaceOnUse">
<stop stop-color="#EBBB6C"/>
<stop offset="1" stop-color="#D39000"/>
</linearGradient>
<linearGradient id="paint12_linear_3601_1083" x1="85.3732" y1="-1.88093" x2="86.7932" y2="55.3991" gradientUnits="userSpaceOnUse">
<stop stop-color="#EBBB6C"/>
<stop offset="1" stop-color="#D39000"/>
</linearGradient>
</defs>
</svg>
