<svg width="18" height="17" viewBox="0 0 18 17" fill="none" xmlns="http://www.w3.org/2000/svg">
<g clip-path="url(#clip0_15_2)">
<path d="M13.9219 10.5583C13.5748 10.2247 13.1562 10.0463 12.7125 10.0463C12.2723 10.0463 11.8501 10.2214 11.4887 10.555L10.358 11.5954C10.2649 11.5492 10.1719 11.5062 10.0825 11.4633C9.95367 11.4039 9.832 11.3477 9.7282 11.2882C8.66907 10.6673 7.70647 9.85806 6.78333 8.81099C6.33605 8.28912 6.03548 7.84986 5.8172 7.40399C6.11061 7.15626 6.38256 6.89859 6.64738 6.65085C6.74753 6.55837 6.84773 6.46259 6.94793 6.37011C7.6994 5.67648 7.6994 4.77807 6.94793 4.08443L5.97107 3.18272C5.86014 3.08032 5.74564 2.97463 5.63829 2.86894C5.4236 2.66416 5.19817 2.45276 4.96559 2.25458C4.6185 1.9375 4.20342 1.76904 3.76688 1.76904C3.33033 1.76904 2.9081 1.9375 2.55027 2.25458C2.5467 2.25788 2.5467 2.25788 2.54312 2.26118L1.32653 3.39411C0.868506 3.8169 0.607294 4.33216 0.550042 4.93C0.464166 5.89447 0.7719 6.79288 1.00806 7.38079C1.58773 8.82426 2.45367 10.1619 3.74541 11.5954C5.31267 13.3229 7.1984 14.687 9.35253 15.6482C10.1755 16.0082 11.274 16.4343 12.5013 16.5069C12.5765 16.5103 12.6552 16.5135 12.7268 16.5135C13.5533 16.5135 14.2475 16.2394 14.7915 15.6944C14.7949 15.6878 14.8021 15.6845 14.8057 15.6779C14.9918 15.4699 15.2065 15.2816 15.4319 15.0801C15.5858 14.9447 15.7432 14.8027 15.8971 14.654C16.2513 14.3138 16.4374 13.9175 16.4374 13.5111C16.4374 13.1016 16.2478 12.7085 15.8863 12.3783L13.9219 10.5583ZM15.2029 14.0363C15.1993 14.0397 15.1993 14.0363 15.2029 14.0363C15.0633 14.1751 14.9202 14.3005 14.7663 14.4393C14.5338 14.6441 14.2976 14.8588 14.0758 15.0999C13.7143 15.4566 13.2885 15.6251 12.7304 15.6251C12.6767 15.6251 12.6195 15.6251 12.5657 15.6218C11.5031 15.559 10.5154 15.1759 9.77473 14.8489C7.74947 13.9439 5.97107 12.659 4.49325 11.0306C3.27308 9.67313 2.45725 8.41792 1.91693 7.07039C1.58415 6.24789 1.46249 5.60711 1.51617 5.00267C1.55195 4.61622 1.71297 4.29583 2.00996 4.02168L3.23014 2.89536C3.40547 2.74342 3.59154 2.66085 3.77403 2.66085C3.99946 2.66085 4.18195 2.78637 4.29645 2.89206C4.30003 2.89536 4.30361 2.89866 4.30719 2.90196C4.52546 3.09024 4.73299 3.28512 4.95127 3.4932C5.06219 3.5989 5.1767 3.7046 5.2912 3.81359L6.26806 4.71531C6.64738 5.06543 6.64738 5.38911 6.26806 5.73923C6.16429 5.83502 6.06411 5.93081 5.96033 6.02329C5.65976 6.30735 5.3735 6.57158 5.06219 6.82922C5.05504 6.83579 5.04788 6.83912 5.04431 6.84572C4.73657 7.12979 4.79383 7.40719 4.85824 7.59553C4.86181 7.60546 4.86539 7.61532 4.86897 7.62519C5.12303 8.19332 5.48085 8.72846 6.02474 9.36593L6.02832 9.36926C7.01593 10.4923 8.05713 11.3675 9.2058 12.0381C9.35253 12.1239 9.5028 12.1933 9.64593 12.2593C9.77473 12.3188 9.8964 12.3749 10.0001 12.4344C10.0145 12.441 10.0288 12.4509 10.0431 12.4575C10.1647 12.5137 10.2792 12.5401 10.3973 12.5401C10.6943 12.5401 10.8804 12.3683 10.9412 12.3122L12.1649 11.1825C12.2867 11.0703 12.4799 10.9348 12.7053 10.9348C12.9272 10.9348 13.1096 11.0637 13.2206 11.1759C13.2241 11.1793 13.2241 11.1793 13.2277 11.1825L15.1993 13.0025C15.5679 13.3394 15.5679 13.6862 15.2029 14.0363Z" fill="#221D1E"/>
<path d="M15.2029 14.0363C15.1993 14.0363 15.1993 14.0397 15.2029 14.0363ZM15.2029 14.0363C15.0633 14.1751 14.9202 14.3005 14.7663 14.4393C14.5338 14.6441 14.2976 14.8588 14.0758 15.0999C13.7143 15.4566 13.2885 15.6251 12.7304 15.6251C12.6767 15.6251 12.6195 15.6251 12.5657 15.6218C11.5031 15.559 10.5154 15.1759 9.77473 14.8489C7.74947 13.9439 5.97107 12.659 4.49325 11.0306C3.27308 9.67313 2.45725 8.41792 1.91693 7.07039C1.58415 6.24789 1.46249 5.60711 1.51617 5.00267C1.55195 4.61622 1.71297 4.29583 2.00996 4.02168L3.23014 2.89536C3.40547 2.74342 3.59154 2.66085 3.77403 2.66085C3.99946 2.66085 4.18195 2.78637 4.29645 2.89206C4.30003 2.89536 4.30361 2.89866 4.30719 2.90196C4.52546 3.09024 4.73299 3.28512 4.95127 3.4932C5.06219 3.5989 5.1767 3.7046 5.2912 3.81359L6.26806 4.71531C6.64738 5.06543 6.64738 5.38911 6.26806 5.73923C6.16429 5.83502 6.06411 5.93081 5.96033 6.02329C5.65976 6.30735 5.3735 6.57158 5.06219 6.82922C5.05504 6.83579 5.04788 6.83912 5.04431 6.84572C4.73657 7.12979 4.79383 7.40719 4.85824 7.59553C4.86181 7.60546 4.86539 7.61532 4.86897 7.62519C5.12303 8.19332 5.48085 8.72846 6.02474 9.36593L6.02832 9.36926C7.01593 10.4923 8.05713 11.3675 9.2058 12.0381C9.35253 12.1239 9.5028 12.1933 9.64593 12.2593C9.77473 12.3188 9.8964 12.3749 10.0001 12.4344C10.0145 12.441 10.0288 12.4509 10.0431 12.4575C10.1647 12.5137 10.2792 12.5401 10.3973 12.5401C10.6943 12.5401 10.8804 12.3683 10.9412 12.3122L12.1649 11.1825C12.2867 11.0703 12.4799 10.9348 12.7053 10.9348C12.9272 10.9348 13.1096 11.0637 13.2206 11.1759C13.2241 11.1793 13.2241 11.1793 13.2277 11.1825L15.1993 13.0025C15.5679 13.3394 15.5679 13.6862 15.2029 14.0363ZM13.9219 10.5583C13.5748 10.2247 13.1562 10.0463 12.7125 10.0463C12.2723 10.0463 11.8501 10.2214 11.4887 10.555L10.358 11.5954C10.2649 11.5492 10.1719 11.5062 10.0825 11.4633C9.95367 11.4039 9.832 11.3477 9.7282 11.2882C8.66907 10.6673 7.70647 9.85806 6.78333 8.81099C6.33605 8.28912 6.03548 7.84986 5.8172 7.40399C6.11061 7.15626 6.38256 6.89859 6.64738 6.65085C6.74753 6.55837 6.84773 6.46259 6.94793 6.37011C7.6994 5.67648 7.6994 4.77807 6.94793 4.08443L5.97107 3.18272C5.86014 3.08032 5.74564 2.97463 5.63829 2.86894C5.4236 2.66416 5.19817 2.45276 4.96559 2.25458C4.6185 1.9375 4.20342 1.76904 3.76688 1.76904C3.33033 1.76904 2.9081 1.9375 2.55027 2.25458C2.5467 2.25788 2.5467 2.25788 2.54312 2.26118L1.32653 3.39411C0.868506 3.8169 0.607294 4.33216 0.550042 4.93C0.464166 5.89447 0.7719 6.79288 1.00806 7.38079C1.58773 8.82426 2.45367 10.1619 3.74541 11.5954C5.31267 13.3229 7.1984 14.687 9.35253 15.6482C10.1755 16.0082 11.274 16.4343 12.5013 16.5069C12.5765 16.5103 12.6552 16.5135 12.7268 16.5135C13.5533 16.5135 14.2475 16.2394 14.7915 15.6944C14.7949 15.6878 14.8021 15.6845 14.8057 15.6779C14.9918 15.4699 15.2065 15.2816 15.4319 15.0801C15.5858 14.9447 15.7432 14.8027 15.8971 14.654C16.2513 14.3138 16.4374 13.9175 16.4374 13.5111C16.4374 13.1016 16.2478 12.7085 15.8863 12.3783L13.9219 10.5583Z" stroke="#221D1E" stroke-width="0.333333"/>
<path d="M9.68507 4.5863C10.6226 4.73163 11.4742 5.1412 12.154 5.76877C12.8339 6.39634 13.274 7.18246 13.435 8.04786C13.4744 8.26579 13.6784 8.41772 13.911 8.41772C13.9396 8.41772 13.9647 8.41446 13.9933 8.41119C14.258 8.37152 14.4333 8.14026 14.3905 7.89593C14.1972 6.84886 13.6605 5.89428 12.8411 5.1379C12.0217 4.38152 10.9875 3.88607 9.85327 3.70771C9.58847 3.66808 9.3416 3.82992 9.295 4.07104C9.24853 4.31216 9.42027 4.54666 9.68507 4.5863Z" fill="#221D1E" stroke="#221D1E" stroke-width="0.333333"/>
<path d="M17.4575 7.76719C17.139 6.04304 16.2587 4.47412 14.9061 3.2256C13.5535 1.97707 11.8539 1.16453 9.98607 0.870565C9.72487 0.827628 9.478 0.992778 9.4314 1.23389C9.38853 1.47832 9.56387 1.70622 9.8286 1.74916C11.4961 2.0101 13.0169 2.74006 14.2263 3.85317C15.4357 4.96957 16.2229 6.37334 16.5056 7.91259C16.5449 8.13052 16.7489 8.28246 16.9815 8.28246C17.0101 8.28246 17.0352 8.27912 17.0638 8.27586C17.325 8.23952 17.5039 8.00826 17.4575 7.76719Z" fill="#221D1E" stroke="#221D1E" stroke-width="0.333333"/>
</g>
<defs>
<clipPath id="clip0_15_2">
<rect width="18" height="16.6667" fill="white" transform="translate(0 0.166992)"/>
</clipPath>
</defs>
</svg>
