<svg width="57" height="57" viewBox="0 0 57 57" fill="none" xmlns="http://www.w3.org/2000/svg">
<rect width="57" height="57" rx="28.5" fill="url(#paint0_linear_3601_948)"/>
<g clip-path="url(#clip0_3601_948)">
<g clip-path="url(#clip1_3601_948)">
<path d="M21.269 32.8759C24.0465 35.634 27.1972 35.4532 27.1972 35.4532H28.6288C28.6288 35.4532 29.0631 35.4066 29.2834 35.1791C29.4853 34.9692 29.4792 34.5786 29.4792 34.5786C29.4792 34.5786 29.4486 32.7534 30.3418 32.4794C31.2166 32.217 32.3484 34.2462 33.5414 35.0275C34.4468 35.6165 35.132 35.4882 35.132 35.4882L38.3194 35.4474C38.3194 35.4474 39.9896 35.3482 39.2004 34.1004C39.1331 33.9955 38.7416 33.1733 36.8267 31.4823C34.8261 29.7097 35.0953 29.9954 37.5058 26.9341C38.974 25.0682 39.5613 23.9311 39.3778 23.4413C39.2004 22.9749 38.1237 23.0973 38.1237 23.0973L34.5264 23.1206C34.5264 23.1206 34.2572 23.0856 34.0614 23.1964C33.8656 23.3072 33.7433 23.5638 33.7433 23.5638C33.7433 23.5638 33.1743 25.0099 32.4157 26.2344C30.8128 28.8234 30.1766 28.9633 29.9135 28.8C29.3079 28.4268 29.4547 27.2956 29.4547 26.491C29.4547 23.9778 29.8523 22.934 28.6777 22.66C28.2862 22.5725 27.9986 22.5084 27.0014 22.5025C25.7167 22.4909 24.6338 22.5084 24.0159 22.7941C23.606 22.9865 23.294 23.4122 23.4837 23.4355C23.7223 23.4647 24.2606 23.5754 24.5421 23.9428C24.9091 24.4209 24.8969 25.4938 24.8969 25.4938C24.8969 25.4938 25.111 28.4502 24.4014 28.8175C23.918 29.0683 23.2512 28.5551 21.8257 26.2052C21.0916 25.004 20.541 23.6687 20.541 23.6687C20.541 23.6687 20.437 23.418 20.2474 23.2897C20.0149 23.1265 19.6967 23.0798 19.6967 23.0798L16.283 23.1031C16.283 23.1031 15.7691 23.1148 15.5794 23.3305C15.4081 23.5113 15.5672 23.902 15.5672 23.902C15.5672 23.902 18.2407 29.8671 21.269 32.8759Z" fill="white"/>
</g>
</g>
<defs>
<linearGradient id="paint0_linear_3601_948" x1="-0.650712" y1="27.8181" x2="57.6507" y2="29.1819" gradientUnits="userSpaceOnUse">
<stop offset="0.0729" stop-color="#EBBB6C"/>
<stop offset="1" stop-color="#D39000"/>
</linearGradient>
<clipPath id="clip0_3601_948">
<rect width="34" height="34" fill="white" transform="translate(11.5 11.5)"/>
</clipPath>
<clipPath id="clip1_3601_948">
<rect width="34" height="34" fill="white" transform="translate(11.5 11.5)"/>
</clipPath>
</defs>
</svg>
